<svg width="598" height="152" viewBox="0 0 598 152" fill="none" xmlns="http://www.w3.org/2000/svg">
<g filter="url(#filter0_d_129_913)">
<path d="M35.904 41.64C42.368 41.64 47.488 43.528 51.264 47.304C55.104 51.016 57.024 56.488 57.024 63.72V93H47.808V64.776C47.808 59.848 46.624 56.136 44.256 53.64C41.888 51.144 38.496 49.896 34.08 49.896C29.088 49.896 25.152 51.368 22.272 54.312C19.392 57.192 17.952 61.352 17.952 66.792V93H8.736V21.768H17.952V49.32C19.872 46.888 22.368 45 25.44 43.656C28.576 42.312 32.064 41.64 35.904 41.64ZM122.361 42.12V93H113.529V84.936C111.481 87.752 108.889 89.896 105.753 91.368C102.617 92.84 99.161 93.576 95.385 93.576C90.457 93.576 86.041 92.488 82.137 90.312C78.233 88.136 75.161 85.096 72.921 81.192C70.745 77.224 69.657 72.68 69.657 67.56C69.657 62.44 70.745 57.928 72.921 54.024C75.161 50.12 78.233 47.08 82.137 44.904C86.041 42.728 90.457 41.64 95.385 41.64C99.033 41.64 102.393 42.344 105.465 43.752C108.537 45.096 111.097 47.112 113.145 49.8V42.12H122.361ZM96.153 85.512C99.353 85.512 102.265 84.776 104.889 83.304C107.513 81.768 109.561 79.656 111.033 76.968C112.505 74.216 113.241 71.08 113.241 67.56C113.241 64.04 112.505 60.936 111.033 58.248C109.561 55.496 107.513 53.384 104.889 51.912C102.265 50.44 99.353 49.704 96.153 49.704C92.889 49.704 89.945 50.44 87.321 51.912C84.761 53.384 82.713 55.496 81.177 58.248C79.705 60.936 78.969 64.04 78.969 67.56C78.969 71.08 79.705 74.216 81.177 76.968C82.713 79.656 84.761 81.768 87.321 83.304C89.945 84.776 92.889 85.512 96.153 85.512ZM155.255 93.576C150.327 93.576 146.519 92.232 143.831 89.544C141.143 86.792 139.799 82.952 139.799 78.024V21.768H149.015V77.256C149.015 80.008 149.655 82.12 150.935 83.592C152.279 85.064 154.263 85.8 156.887 85.8C158.487 85.8 159.991 85.48 161.399 84.84L161.879 92.424C159.767 93.192 157.559 93.576 155.255 93.576ZM217.705 42.12V93H208.873V84.936C206.825 87.752 204.233 89.896 201.097 91.368C197.961 92.84 194.505 93.576 190.729 93.576C185.801 93.576 181.385 92.488 177.481 90.312C173.577 88.136 170.505 85.096 168.265 81.192C166.089 77.224 165.001 72.68 165.001 67.56C165.001 62.44 166.089 57.928 168.265 54.024C170.505 50.12 173.577 47.08 177.481 44.904C181.385 42.728 185.801 41.64 190.729 41.64C194.377 41.64 197.737 42.344 200.809 43.752C203.881 45.096 206.441 47.112 208.489 49.8V42.12H217.705ZM191.497 85.512C194.697 85.512 197.609 84.776 200.233 83.304C202.857 81.768 204.905 79.656 206.377 76.968C207.849 74.216 208.585 71.08 208.585 67.56C208.585 64.04 207.849 60.936 206.377 58.248C204.905 55.496 202.857 53.384 200.233 51.912C197.609 50.44 194.697 49.704 191.497 49.704C188.233 49.704 185.289 50.44 182.665 51.912C180.105 53.384 178.057 55.496 176.521 58.248C175.049 60.936 174.313 64.04 174.313 67.56C174.313 71.08 175.049 74.216 176.521 76.968C178.057 79.656 180.105 81.768 182.665 83.304C185.289 84.776 188.233 85.512 191.497 85.512ZM250.598 93.576C245.67 93.576 241.862 92.232 239.174 89.544C236.486 86.792 235.142 82.952 235.142 78.024V21.768H244.358V77.256C244.358 80.008 244.998 82.12 246.278 83.592C247.622 85.064 249.606 85.8 252.23 85.8C253.83 85.8 255.334 85.48 256.742 84.84L257.222 92.424C255.11 93.192 252.902 93.576 250.598 93.576Z" fill="#D40A3A"/>
<path d="M287.778 93.576C282.722 93.576 278.178 92.456 274.146 90.216C270.114 87.976 266.946 84.904 264.642 81C262.402 77.032 261.282 72.552 261.282 67.56C261.282 62.568 262.402 58.12 264.642 54.216C266.946 50.248 270.114 47.176 274.146 45C278.178 42.76 282.722 41.64 287.778 41.64C292.834 41.64 297.346 42.76 301.314 45C305.346 47.176 308.482 50.248 310.722 54.216C313.026 58.12 314.178 62.568 314.178 67.56C314.178 72.552 313.026 77.032 310.722 81C308.482 84.904 305.346 87.976 301.314 90.216C297.346 92.456 292.834 93.576 287.778 93.576ZM287.778 85.512C291.042 85.512 293.954 84.776 296.514 83.304C299.138 81.768 301.186 79.656 302.658 76.968C304.13 74.216 304.866 71.08 304.866 67.56C304.866 64.04 304.13 60.936 302.658 58.248C301.186 55.496 299.138 53.384 296.514 51.912C293.954 50.44 291.042 49.704 287.778 49.704C284.514 49.704 281.57 50.44 278.946 51.912C276.386 53.384 274.338 55.496 272.802 58.248C271.33 60.936 270.594 64.04 270.594 67.56C270.594 71.08 271.33 74.216 272.802 76.968C274.338 79.656 276.386 81.768 278.946 83.304C281.57 84.776 284.514 85.512 287.778 85.512Z" fill="url(#paint0_linear_129_913)"/>
<path d="M353.9 41.64C358.828 41.64 363.244 42.728 367.148 44.904C371.052 47.08 374.092 50.12 376.268 54.024C378.508 57.928 379.628 62.44 379.628 67.56C379.628 72.68 378.508 77.224 376.268 81.192C374.092 85.096 371.052 88.136 367.148 90.312C363.244 92.488 358.828 93.576 353.9 93.576C350.252 93.576 346.892 92.872 343.82 91.464C340.812 90.056 338.252 88.008 336.14 85.32V111.624H326.924V42.12H335.756V50.184C337.804 47.368 340.396 45.256 343.531 43.848C346.668 42.376 350.124 41.64 353.9 41.64ZM353.132 85.512C356.396 85.512 359.308 84.776 361.868 83.304C364.492 81.768 366.54 79.656 368.012 76.968C369.548 74.216 370.316 71.08 370.316 67.56C370.316 64.04 369.548 60.936 368.012 58.248C366.54 55.496 364.492 53.384 361.868 51.912C359.308 50.44 356.396 49.704 353.132 49.704C349.932 49.704 347.02 50.472 344.396 52.008C341.836 53.48 339.788 55.56 338.252 58.248C336.78 60.936 336.044 64.04 336.044 67.56C336.044 71.08 336.78 74.216 338.252 76.968C339.724 79.656 341.772 81.768 344.396 83.304C347.02 84.776 349.932 85.512 353.132 85.512ZM415.305 85.512C421.385 85.512 426.281 83.464 429.993 79.368L434.985 85.32C432.745 88.008 429.897 90.056 426.441 91.464C423.049 92.872 419.241 93.576 415.017 93.576C409.641 93.576 404.873 92.488 400.713 90.312C396.553 88.072 393.321 84.968 391.017 81C388.777 77.032 387.657 72.552 387.657 67.56C387.657 62.632 388.745 58.184 390.921 54.216C393.161 50.248 396.201 47.176 400.041 45C403.945 42.76 408.329 41.64 413.193 41.64C417.801 41.64 421.993 42.696 425.769 44.808C429.545 46.856 432.553 49.768 434.793 53.544C437.033 57.32 438.185 61.672 438.249 66.6L397.833 74.472C399.113 77.992 401.257 80.712 404.265 82.632C407.337 84.552 411.017 85.512 415.305 85.512ZM413.193 49.416C409.993 49.416 407.113 50.152 404.553 51.624C402.057 53.096 400.105 55.176 398.697 57.864C397.289 60.488 396.585 63.56 396.585 67.08V68.04L429.129 61.896C428.297 58.184 426.441 55.176 423.561 52.872C420.681 50.568 417.225 49.416 413.193 49.416ZM499.142 21.768V93H490.31V84.936C488.262 87.752 485.67 89.896 482.534 91.368C479.398 92.84 475.942 93.576 472.166 93.576C467.238 93.576 462.822 92.488 458.918 90.312C455.014 88.136 451.942 85.096 449.702 81.192C447.526 77.224 446.438 72.68 446.438 67.56C446.438 62.44 447.526 57.928 449.702 54.024C451.942 50.12 455.014 47.08 458.918 44.904C462.822 42.728 467.238 41.64 472.166 41.64C475.814 41.64 479.174 42.344 482.246 43.752C485.318 45.096 487.878 47.112 489.926 49.8V21.768H499.142ZM472.934 85.512C476.134 85.512 479.046 84.776 481.67 83.304C484.294 81.768 486.342 79.656 487.814 76.968C489.286 74.216 490.022 71.08 490.022 67.56C490.022 64.04 489.286 60.936 487.814 58.248C486.342 55.496 484.294 53.384 481.67 51.912C479.046 50.44 476.134 49.704 472.934 49.704C469.67 49.704 466.726 50.44 464.102 51.912C461.542 53.384 459.494 55.496 457.958 58.248C456.486 60.936 455.75 64.04 455.75 67.56C455.75 71.08 456.486 74.216 457.958 76.968C459.494 79.656 461.542 81.768 464.102 83.304C466.726 84.776 469.67 85.512 472.934 85.512ZM516.58 42.12H525.796V93H516.58V42.12ZM521.188 32.328C519.396 32.328 517.892 31.752 516.676 30.6C515.524 29.448 514.948 28.04 514.948 26.376C514.948 24.712 515.524 23.304 516.676 22.152C517.892 20.936 519.396 20.328 521.188 20.328C522.98 20.328 524.452 20.904 525.604 22.056C526.82 23.144 527.428 24.52 527.428 26.184C527.428 27.912 526.82 29.384 525.604 30.6C524.452 31.752 522.98 32.328 521.188 32.328ZM591.392 42.12V93H582.56V84.936C580.512 87.752 577.92 89.896 574.784 91.368C571.648 92.84 568.192 93.576 564.416 93.576C559.488 93.576 555.072 92.488 551.168 90.312C547.264 88.136 544.192 85.096 541.952 81.192C539.776 77.224 538.688 72.68 538.688 67.56C538.688 62.44 539.776 57.928 541.952 54.024C544.192 50.12 547.264 47.08 551.168 44.904C555.072 42.728 559.488 41.64 564.416 41.64C568.064 41.64 571.424 42.344 574.496 43.752C577.568 45.096 580.128 47.112 582.176 49.8V42.12H591.392ZM565.184 85.512C568.384 85.512 571.296 84.776 573.92 83.304C576.544 81.768 578.592 79.656 580.064 76.968C581.536 74.216 582.272 71.08 582.272 67.56C582.272 64.04 581.536 60.936 580.064 58.248C578.592 55.496 576.544 53.384 573.92 51.912C571.296 50.44 568.384 49.704 565.184 49.704C561.92 49.704 558.976 50.44 556.352 51.912C553.792 53.384 551.744 55.496 550.208 58.248C548.736 60.936 548 64.04 548 67.56C548 71.08 548.736 74.216 550.208 76.968C551.744 79.656 553.792 81.768 556.352 83.304C558.976 84.776 561.92 85.512 565.184 85.512Z" fill="#553CB2"/>
<path d="M279.768 136.273C279.08 136.929 278.16 137.441 277.008 137.809C275.872 138.161 274.608 138.337 273.216 138.337C271.744 138.337 270.488 138.137 269.448 137.737C268.424 137.337 267.648 136.785 267.12 136.081C266.608 135.377 266.352 134.569 266.352 133.657C266.352 132.649 266.648 131.793 267.24 131.089C267.848 130.385 268.64 129.897 269.616 129.625C268.816 129.321 268.192 128.841 267.744 128.185C267.296 127.513 267.072 126.729 267.072 125.833C267.072 124.985 267.312 124.217 267.792 123.529C268.288 122.825 269.024 122.273 270 121.873C270.992 121.457 272.184 121.249 273.576 121.249C274.6 121.249 275.592 121.369 276.552 121.609C277.528 121.833 278.36 122.161 279.048 122.593L278.496 124.009C277.024 123.177 275.408 122.761 273.648 122.761C272.096 122.761 270.904 123.057 270.072 123.649C269.256 124.241 268.848 125.009 268.848 125.953C268.848 126.897 269.176 127.625 269.832 128.137C270.504 128.649 271.448 128.905 272.664 128.905H276.84V130.441H272.592C271.216 130.441 270.128 130.705 269.328 131.233C268.528 131.745 268.128 132.513 268.128 133.537C268.128 134.545 268.56 135.345 269.424 135.937C270.304 136.529 271.592 136.825 273.288 136.825C274.472 136.825 275.576 136.657 276.6 136.321C277.624 135.985 278.456 135.521 279.096 134.929L279.768 136.273ZM290.33 138.193L286.322 132.913L282.29 138.193H280.37L285.362 131.713L280.61 125.569H282.53L286.322 130.513L290.114 125.569H291.986L287.234 131.713L292.274 138.193H290.33ZM301.615 125.473C302.799 125.473 303.871 125.745 304.831 126.289C305.791 126.817 306.543 127.569 307.087 128.545C307.631 129.521 307.903 130.633 307.903 131.881C307.903 133.145 307.631 134.265 307.087 135.241C306.543 136.217 305.791 136.977 304.831 137.521C303.887 138.049 302.815 138.313 301.615 138.313C300.591 138.313 299.663 138.105 298.831 137.689C298.015 137.257 297.343 136.633 296.815 135.817V142.849H295.111V125.569H296.743V128.065C297.255 127.233 297.927 126.593 298.759 126.145C299.607 125.697 300.559 125.473 301.615 125.473ZM301.495 136.801C302.375 136.801 303.175 136.601 303.895 136.201C304.615 135.785 305.175 135.201 305.575 134.449C305.991 133.697 306.199 132.841 306.199 131.881C306.199 130.921 305.991 130.073 305.575 129.337C305.175 128.585 304.615 128.001 303.895 127.585C303.175 127.169 302.375 126.961 301.495 126.961C300.599 126.961 299.791 127.169 299.071 127.585C298.367 128.001 297.807 128.585 297.391 129.337C296.991 130.073 296.791 130.921 296.791 131.881C296.791 132.841 296.991 133.697 297.391 134.449C297.807 135.201 298.367 135.785 299.071 136.201C299.791 136.601 300.599 136.801 301.495 136.801ZM314.928 138.313C313.792 138.313 312.912 137.993 312.288 137.353C311.68 136.713 311.376 135.825 311.376 134.689V120.385H313.08V134.545C313.08 135.297 313.256 135.873 313.608 136.273C313.96 136.657 314.488 136.849 315.192 136.849C315.64 136.849 316.024 136.777 316.344 136.633L316.464 138.049C315.968 138.225 315.456 138.313 314.928 138.313ZM323.708 138.313C322.492 138.313 321.396 138.041 320.42 137.497C319.444 136.937 318.676 136.169 318.116 135.193C317.556 134.217 317.276 133.113 317.276 131.881C317.276 130.649 317.556 129.545 318.116 128.569C318.676 127.593 319.444 126.833 320.42 126.289C321.396 125.745 322.492 125.473 323.708 125.473C324.924 125.473 326.02 125.745 326.996 126.289C327.972 126.833 328.732 127.593 329.276 128.569C329.836 129.545 330.116 130.649 330.116 131.881C330.116 133.113 329.836 134.217 329.276 135.193C328.732 136.169 327.972 136.937 326.996 137.497C326.02 138.041 324.924 138.313 323.708 138.313ZM323.708 136.801C324.604 136.801 325.404 136.601 326.108 136.201C326.828 135.785 327.388 135.201 327.788 134.449C328.188 133.697 328.388 132.841 328.388 131.881C328.388 130.921 328.188 130.065 327.788 129.313C327.388 128.561 326.828 127.985 326.108 127.585C325.404 127.169 324.604 126.961 323.708 126.961C322.812 126.961 322.004 127.169 321.284 127.585C320.58 127.985 320.02 128.561 319.604 129.313C319.204 130.065 319.004 130.921 319.004 131.881C319.004 132.841 319.204 133.697 319.604 134.449C320.02 135.201 320.58 135.785 321.284 136.201C322.004 136.601 322.812 136.801 323.708 136.801ZM335.227 128.041C335.627 127.193 336.219 126.553 337.003 126.121C337.803 125.689 338.787 125.473 339.955 125.473V127.129L339.547 127.105C338.219 127.105 337.179 127.513 336.427 128.329C335.675 129.145 335.299 130.289 335.299 131.761V138.193H333.595V125.569H335.227V128.041ZM348.323 136.801C349.107 136.801 349.827 136.665 350.483 136.393C351.155 136.105 351.723 135.689 352.187 135.145L353.147 136.249C352.587 136.921 351.891 137.433 351.059 137.785C350.227 138.137 349.307 138.313 348.299 138.313C347.003 138.313 345.851 138.041 344.843 137.497C343.835 136.937 343.051 136.169 342.491 135.193C341.931 134.217 341.651 133.113 341.651 131.881C341.651 130.649 341.915 129.545 342.443 128.569C342.987 127.593 343.731 126.833 344.675 126.289C345.619 125.745 346.691 125.473 347.891 125.473C349.011 125.473 350.019 125.729 350.915 126.241C351.827 126.753 352.547 127.465 353.075 128.377C353.619 129.289 353.907 130.329 353.939 131.497L343.571 133.513C343.891 134.537 344.467 135.345 345.299 135.937C346.147 136.513 347.155 136.801 348.323 136.801ZM347.891 126.937C347.011 126.937 346.219 127.145 345.515 127.561C344.827 127.961 344.283 128.529 343.883 129.265C343.499 129.985 343.307 130.817 343.307 131.761C343.307 132.001 343.315 132.177 343.331 132.289L352.235 130.561C352.043 129.505 351.555 128.641 350.771 127.969C349.987 127.281 349.027 126.937 347.891 126.937ZM357.576 138.313C357.224 138.313 356.92 138.185 356.664 137.929C356.424 137.673 356.304 137.361 356.304 136.993C356.304 136.625 356.424 136.321 356.664 136.081C356.92 135.825 357.224 135.697 357.576 135.697C357.928 135.697 358.232 135.825 358.488 136.081C358.744 136.321 358.872 136.625 358.872 136.993C358.872 137.361 358.744 137.673 358.488 137.929C358.232 138.185 357.928 138.313 357.576 138.313ZM366.333 122.929V136.657H369.741V138.193H361.173V136.657H364.581V122.929H361.173V121.393H369.741V122.929H366.333ZM379.613 125.473C381.197 125.473 382.453 125.937 383.381 126.865C384.325 127.777 384.797 129.113 384.797 130.873V138.193H383.093V131.041C383.093 129.729 382.765 128.729 382.109 128.041C381.453 127.353 380.517 127.009 379.301 127.009C377.941 127.009 376.861 127.417 376.061 128.233C375.277 129.033 374.885 130.145 374.885 131.569V138.193H373.181V125.569H374.813V127.897C375.277 127.129 375.917 126.537 376.733 126.121C377.565 125.689 378.525 125.473 379.613 125.473ZM400.99 120.385V138.193H399.358V135.697C398.846 136.545 398.166 137.193 397.318 137.641C396.486 138.089 395.542 138.313 394.486 138.313C393.302 138.313 392.23 138.041 391.27 137.497C390.31 136.953 389.558 136.193 389.014 135.217C388.47 134.241 388.198 133.129 388.198 131.881C388.198 130.633 388.47 129.521 389.014 128.545C389.558 127.569 390.31 126.817 391.27 126.289C392.23 125.745 393.302 125.473 394.486 125.473C395.51 125.473 396.43 125.689 397.246 126.121C398.078 126.537 398.758 127.153 399.286 127.969V120.385H400.99ZM394.63 136.801C395.51 136.801 396.302 136.601 397.006 136.201C397.726 135.785 398.286 135.201 398.686 134.449C399.102 133.697 399.31 132.841 399.31 131.881C399.31 130.921 399.102 130.065 398.686 129.313C398.286 128.561 397.726 127.985 397.006 127.585C396.302 127.169 395.51 126.961 394.63 126.961C393.734 126.961 392.926 127.169 392.206 127.585C391.502 127.985 390.942 128.561 390.526 129.313C390.126 130.065 389.926 130.921 389.926 131.881C389.926 132.841 390.126 133.697 390.526 134.449C390.942 135.201 391.502 135.785 392.206 136.201C392.926 136.601 393.734 136.801 394.63 136.801ZM417.112 125.569V138.193H415.48V135.889C415.032 136.657 414.416 137.257 413.632 137.689C412.848 138.105 411.952 138.313 410.944 138.313C409.296 138.313 407.992 137.857 407.032 136.945C406.088 136.017 405.616 134.665 405.616 132.889V125.569H407.32V132.721C407.32 134.049 407.648 135.057 408.304 135.745C408.96 136.433 409.896 136.777 411.112 136.777C412.44 136.777 413.488 136.377 414.256 135.577C415.024 134.761 415.408 133.633 415.408 132.193V125.569H417.112ZM425.436 138.313C424.3 138.313 423.42 137.993 422.796 137.353C422.188 136.713 421.884 135.825 421.884 134.689V120.385H423.588V134.545C423.588 135.297 423.764 135.873 424.116 136.273C424.468 136.657 424.996 136.849 425.7 136.849C426.148 136.849 426.532 136.777 426.852 136.633L426.972 138.049C426.476 138.225 425.964 138.313 425.436 138.313ZM440.744 125.569V136.657C440.744 138.801 440.216 140.385 439.16 141.409C438.12 142.449 436.544 142.969 434.432 142.969C433.264 142.969 432.152 142.793 431.096 142.441C430.056 142.105 429.208 141.633 428.552 141.025L429.416 139.729C430.024 140.273 430.76 140.697 431.624 141.001C432.504 141.305 433.424 141.457 434.384 141.457C435.984 141.457 437.16 141.081 437.912 140.329C438.664 139.593 439.04 138.441 439.04 136.873V135.265C438.512 136.065 437.816 136.673 436.952 137.089C436.104 137.505 435.16 137.713 434.12 137.713C432.936 137.713 431.856 137.457 430.88 136.945C429.92 136.417 429.16 135.689 428.6 134.761C428.056 133.817 427.784 132.753 427.784 131.569C427.784 130.385 428.056 129.329 428.6 128.401C429.16 127.473 429.92 126.753 430.88 126.241C431.84 125.729 432.92 125.473 434.12 125.473C435.192 125.473 436.16 125.689 437.024 126.121C437.888 126.553 438.584 127.177 439.112 127.993V125.569H440.744ZM434.288 136.201C435.2 136.201 436.024 136.009 436.76 135.625C437.496 135.225 438.064 134.673 438.464 133.969C438.88 133.265 439.088 132.465 439.088 131.569C439.088 130.673 438.88 129.881 438.464 129.193C438.064 128.489 437.496 127.945 436.76 127.561C436.04 127.161 435.216 126.961 434.288 126.961C433.376 126.961 432.552 127.153 431.816 127.537C431.096 127.921 430.528 128.465 430.112 129.169C429.712 129.873 429.512 130.673 429.512 131.569C429.512 132.465 429.712 133.265 430.112 133.969C430.528 134.673 431.096 135.225 431.816 135.625C432.552 136.009 433.376 136.201 434.288 136.201ZM450.909 136.801C451.693 136.801 452.413 136.665 453.069 136.393C453.741 136.105 454.309 135.689 454.773 135.145L455.733 136.249C455.173 136.921 454.477 137.433 453.645 137.785C452.813 138.137 451.893 138.313 450.885 138.313C449.589 138.313 448.437 138.041 447.429 137.497C446.421 136.937 445.637 136.169 445.077 135.193C444.517 134.217 444.237 133.113 444.237 131.881C444.237 130.649 444.501 129.545 445.029 128.569C445.573 127.593 446.317 126.833 447.261 126.289C448.205 125.745 449.277 125.473 450.477 125.473C451.597 125.473 452.605 125.729 453.501 126.241C454.413 126.753 455.133 127.465 455.661 128.377C456.205 129.289 456.493 130.329 456.525 131.497L446.157 133.513C446.477 134.537 447.053 135.345 447.885 135.937C448.733 136.513 449.741 136.801 450.909 136.801ZM450.477 126.937C449.597 126.937 448.805 127.145 448.101 127.561C447.413 127.961 446.869 128.529 446.469 129.265C446.085 129.985 445.893 130.817 445.893 131.761C445.893 132.001 445.901 132.177 445.917 132.289L454.821 130.561C454.629 129.505 454.141 128.641 453.357 127.969C452.573 127.281 451.613 126.937 450.477 126.937ZM460.161 138.313C459.809 138.313 459.505 138.185 459.249 137.929C459.009 137.673 458.889 137.361 458.889 136.993C458.889 136.625 459.009 136.321 459.249 136.081C459.505 135.825 459.809 135.697 460.161 135.697C460.513 135.697 460.817 135.825 461.073 136.081C461.329 136.321 461.457 136.625 461.457 136.993C461.457 137.361 461.329 137.673 461.073 137.929C460.817 138.185 460.513 138.313 460.161 138.313ZM472.267 138.337C470.603 138.337 469.099 137.969 467.755 137.233C466.427 136.497 465.379 135.481 464.611 134.185C463.859 132.873 463.483 131.409 463.483 129.793C463.483 128.177 463.859 126.721 464.611 125.425C465.379 124.113 466.435 123.089 467.779 122.353C469.123 121.617 470.627 121.249 472.291 121.249C473.539 121.249 474.691 121.457 475.747 121.873C476.803 122.289 477.699 122.897 478.435 123.697L477.307 124.825C475.995 123.497 474.339 122.833 472.339 122.833C471.011 122.833 469.803 123.137 468.715 123.745C467.627 124.353 466.771 125.185 466.147 126.241C465.539 127.297 465.235 128.481 465.235 129.793C465.235 131.105 465.539 132.289 466.147 133.345C466.771 134.401 467.627 135.233 468.715 135.841C469.803 136.449 471.011 136.753 472.339 136.753C474.355 136.753 476.011 136.081 477.307 134.737L478.435 135.865C477.699 136.665 476.795 137.281 475.723 137.713C474.667 138.129 473.515 138.337 472.267 138.337ZM486.458 138.313C485.242 138.313 484.146 138.041 483.17 137.497C482.194 136.937 481.426 136.169 480.866 135.193C480.306 134.217 480.026 133.113 480.026 131.881C480.026 130.649 480.306 129.545 480.866 128.569C481.426 127.593 482.194 126.833 483.17 126.289C484.146 125.745 485.242 125.473 486.458 125.473C487.674 125.473 488.77 125.745 489.746 126.289C490.722 126.833 491.482 127.593 492.026 128.569C492.586 129.545 492.866 130.649 492.866 131.881C492.866 133.113 492.586 134.217 492.026 135.193C491.482 136.169 490.722 136.937 489.746 137.497C488.77 138.041 487.674 138.313 486.458 138.313ZM486.458 136.801C487.354 136.801 488.154 136.601 488.858 136.201C489.578 135.785 490.138 135.201 490.538 134.449C490.938 133.697 491.138 132.841 491.138 131.881C491.138 130.921 490.938 130.065 490.538 129.313C490.138 128.561 489.578 127.985 488.858 127.585C488.154 127.169 487.354 126.961 486.458 126.961C485.562 126.961 484.754 127.169 484.034 127.585C483.33 127.985 482.77 128.561 482.354 129.313C481.954 130.065 481.754 130.921 481.754 131.881C481.754 132.841 481.954 133.697 482.354 134.449C482.77 135.201 483.33 135.785 484.034 136.201C484.754 136.601 485.562 136.801 486.458 136.801ZM502.777 125.473C504.361 125.473 505.617 125.937 506.545 126.865C507.489 127.777 507.961 129.113 507.961 130.873V138.193H506.257V131.041C506.257 129.729 505.929 128.729 505.273 128.041C504.617 127.353 503.681 127.009 502.465 127.009C501.105 127.009 500.025 127.417 499.225 128.233C498.441 129.033 498.049 130.145 498.049 131.569V138.193H496.345V125.569H497.977V127.897C498.441 127.129 499.081 126.537 499.897 126.121C500.729 125.689 501.689 125.473 502.777 125.473ZM518.803 137.425C518.483 137.713 518.091 137.937 517.627 138.097C517.163 138.241 516.675 138.313 516.163 138.313C514.979 138.313 514.067 137.993 513.427 137.353C512.787 136.713 512.467 135.809 512.467 134.641V122.809H514.171V125.569H517.987V127.009H514.171V134.545C514.171 135.297 514.355 135.873 514.723 136.273C515.091 136.657 515.627 136.849 516.331 136.849C517.099 136.849 517.723 136.633 518.203 136.201L518.803 137.425ZM523.524 128.041C523.924 127.193 524.516 126.553 525.3 126.121C526.1 125.689 527.084 125.473 528.252 125.473V127.129L527.844 127.105C526.516 127.105 525.476 127.513 524.724 128.329C523.972 129.145 523.596 130.289 523.596 131.761V138.193H521.892V125.569H523.524V128.041ZM531.337 125.569H533.041V138.193H531.337V125.569ZM532.201 122.809C531.849 122.809 531.553 122.689 531.313 122.449C531.073 122.209 530.953 121.921 530.953 121.585C530.953 121.265 531.073 120.985 531.313 120.745C531.553 120.505 531.849 120.385 532.201 120.385C532.553 120.385 532.849 120.505 533.089 120.745C533.329 120.969 533.449 121.241 533.449 121.561C533.449 121.913 533.329 122.209 533.089 122.449C532.849 122.689 532.553 122.809 532.201 122.809ZM544.287 125.473C545.471 125.473 546.543 125.745 547.503 126.289C548.463 126.817 549.215 127.569 549.759 128.545C550.303 129.521 550.575 130.633 550.575 131.881C550.575 133.129 550.303 134.241 549.759 135.217C549.215 136.193 548.463 136.953 547.503 137.497C546.543 138.041 545.471 138.313 544.287 138.313C543.231 138.313 542.279 138.089 541.431 137.641C540.599 137.193 539.927 136.545 539.415 135.697V138.193H537.783V120.385H539.487V127.969C540.015 127.153 540.687 126.537 541.503 126.121C542.335 125.689 543.263 125.473 544.287 125.473ZM544.167 136.801C545.047 136.801 545.847 136.601 546.567 136.201C547.287 135.785 547.847 135.201 548.247 134.449C548.663 133.697 548.871 132.841 548.871 131.881C548.871 130.921 548.663 130.065 548.247 129.313C547.847 128.561 547.287 127.985 546.567 127.585C545.847 127.169 545.047 126.961 544.167 126.961C543.271 126.961 542.463 127.169 541.743 127.585C541.039 127.985 540.479 128.561 540.063 129.313C539.663 130.065 539.463 130.921 539.463 131.881C539.463 132.841 539.663 133.697 540.063 134.449C540.479 135.201 541.039 135.785 541.743 136.201C542.463 136.601 543.271 136.801 544.167 136.801ZM565.424 125.569V138.193H563.792V135.889C563.344 136.657 562.728 137.257 561.944 137.689C561.16 138.105 560.264 138.313 559.256 138.313C557.608 138.313 556.304 137.857 555.344 136.945C554.4 136.017 553.928 134.665 553.928 132.889V125.569H555.632V132.721C555.632 134.049 555.96 135.057 556.616 135.745C557.272 136.433 558.208 136.777 559.424 136.777C560.752 136.777 561.8 136.377 562.568 135.577C563.336 134.761 563.72 133.633 563.72 132.193V125.569H565.424ZM576.413 137.425C576.093 137.713 575.701 137.937 575.237 138.097C574.773 138.241 574.285 138.313 573.773 138.313C572.589 138.313 571.677 137.993 571.037 137.353C570.397 136.713 570.077 135.809 570.077 134.641V122.809H571.781V125.569H575.597V127.009H571.781V134.545C571.781 135.297 571.965 135.873 572.333 136.273C572.701 136.657 573.237 136.849 573.941 136.849C574.709 136.849 575.333 136.633 575.813 136.201L576.413 137.425ZM584.456 136.801C585.24 136.801 585.96 136.665 586.616 136.393C587.288 136.105 587.856 135.689 588.32 135.145L589.28 136.249C588.72 136.921 588.024 137.433 587.192 137.785C586.36 138.137 585.44 138.313 584.432 138.313C583.136 138.313 581.984 138.041 580.976 137.497C579.968 136.937 579.184 136.169 578.624 135.193C578.064 134.217 577.784 133.113 577.784 131.881C577.784 130.649 578.048 129.545 578.576 128.569C579.12 127.593 579.864 126.833 580.808 126.289C581.752 125.745 582.824 125.473 584.024 125.473C585.144 125.473 586.152 125.729 587.048 126.241C587.96 126.753 588.68 127.465 589.208 128.377C589.752 129.289 590.04 130.329 590.072 131.497L579.704 133.513C580.024 134.537 580.6 135.345 581.432 135.937C582.28 136.513 583.288 136.801 584.456 136.801ZM584.024 126.937C583.144 126.937 582.352 127.145 581.648 127.561C580.96 127.961 580.416 128.529 580.016 129.265C579.632 129.985 579.44 130.817 579.44 131.761C579.44 132.001 579.448 132.177 579.464 132.289L588.368 130.561C588.176 129.505 587.688 128.641 586.904 127.969C586.12 127.281 585.16 126.937 584.024 126.937ZM593.708 138.313C593.356 138.313 593.052 138.185 592.796 137.929C592.556 137.673 592.436 137.361 592.436 136.993C592.436 136.625 592.556 136.321 592.796 136.081C593.052 135.825 593.356 135.697 593.708 135.697C594.06 135.697 594.364 135.825 594.62 136.081C594.876 136.321 595.004 136.625 595.004 136.993C595.004 137.361 594.876 137.673 594.62 137.929C594.364 138.185 594.06 138.313 593.708 138.313Z" fill="#7C7C7C"/>
<path d="M294.505 91.5859L301.254 87.4732L310.574 102.525C311.723 104.38 311.143 106.805 309.28 107.941V107.941C307.416 109.077 304.974 108.493 303.825 106.638L294.505 91.5859Z" fill="url(#paint1_linear_129_913)"/>
<path d="M287.528 93.576C282.472 93.576 277.928 92.456 273.896 90.216C269.864 87.976 266.696 84.904 264.392 81C262.152 77.032 261.032 72.552 261.032 67.56C261.032 62.568 262.152 58.12 264.392 54.216C266.696 50.248 269.864 47.176 273.896 45C277.928 42.76 282.472 41.64 287.528 41.64C292.584 41.64 297.096 42.76 301.064 45C305.096 47.176 308.232 50.248 310.472 54.216C312.776 58.12 313.928 62.568 313.928 67.56C313.928 72.552 312.776 77.032 310.472 81C308.232 84.904 305.096 87.976 301.064 90.216C297.096 92.456 292.584 93.576 287.528 93.576ZM287.528 85.512C290.792 85.512 293.704 84.776 296.264 83.304C298.888 81.768 300.936 79.656 302.408 76.968C303.88 74.216 304.616 71.08 304.616 67.56C304.616 64.04 303.88 60.936 302.408 58.248C300.936 55.496 298.888 53.384 296.264 51.912C293.704 50.44 290.792 49.704 287.528 49.704C284.264 49.704 281.32 50.44 278.696 51.912C276.136 53.384 274.088 55.496 272.552 58.248C271.08 60.936 270.344 64.04 270.344 67.56C270.344 71.08 271.08 74.216 272.552 76.968C274.088 79.656 276.136 81.768 278.696 83.304C281.32 84.776 284.264 85.512 287.528 85.512Z" fill="url(#paint2_linear_129_913)"/>
</g>
<defs>
<filter id="filter0_d_129_913" x="-2" y="0" width="600" height="156.254" filterUnits="userSpaceOnUse" color-interpolation-filters="sRGB">
<feFlood flood-opacity="0" result="BackgroundImageFix"/>
<feColorMatrix in="SourceAlpha" type="matrix" values="0 0 0 0 0 0 0 0 0 0 0 0 0 0 0 0 0 0 127 0" result="hardAlpha"/>
<feOffset dy="3"/>
<feGaussianBlur stdDeviation="1"/>
<feComposite in2="hardAlpha" operator="out"/>
<feColorMatrix type="matrix" values="0 0 0 0 0.00277773 0 0 0 0 0 0 0 0 0 0.258333 0 0 0 0.05 0"/>
<feBlend mode="normal" in2="BackgroundImageFix" result="effect1_dropShadow_129_913"/>
<feBlend mode="normal" in="SourceGraphic" in2="effect1_dropShadow_129_913" result="shape"/>
</filter>
<linearGradient id="paint0_linear_129_913" x1="595.01" y1="2.19137e-05" x2="523.589" y2="144.976" gradientUnits="userSpaceOnUse">
<stop offset="0.54609" stop-color="#5303AD"/>
<stop offset="1" stop-color="#D40A3A"/>
</linearGradient>
<linearGradient id="paint1_linear_129_913" x1="308.89" y1="102.145" x2="285.13" y2="103.143" gradientUnits="userSpaceOnUse">
<stop stop-color="#553CB2"/>
<stop offset="1" stop-color="#D40A3A"/>
</linearGradient>
<linearGradient id="paint2_linear_129_913" x1="287.5" y1="1.11558e-05" x2="269.506" y2="3.67783" gradientUnits="userSpaceOnUse">
<stop offset="0.54609" stop-color="#5303AD"/>
<stop offset="1" stop-color="#D40A3A"/>
</linearGradient>
</defs>
</svg>
